<svg width="43" height="43" viewBox="0 0 43 43" fill="none" xmlns="http://www.w3.org/2000/svg">
<rect x="0.686188" y="0.977463" width="42" height="42" rx="21" fill="#EACC2D" fill-opacity="0.09"/>
<path d="M21.6862 14.6275C16.9062 14.6275 13.0162 18.5175 13.0162 23.2975C13.0162 28.0775 16.9062 31.9775 21.6862 31.9775C26.4662 31.9775 30.3562 28.0875 30.3562 23.3075C30.3562 18.5275 26.4662 14.6275 21.6862 14.6275ZM22.4362 22.9775C22.4362 23.3875 22.0962 23.7275 21.6862 23.7275C21.2762 23.7275 20.9362 23.3875 20.9362 22.9775V17.9775C20.9362 17.5675 21.2762 17.2275 21.6862 17.2275C22.0962 17.2275 22.4362 17.5675 22.4362 17.9775V22.9775Z" fill="#EACC2D"/>
<path d="M24.5762 13.4275H18.7962C18.3962 13.4275 18.0762 13.1075 18.0762 12.7075C18.0762 12.3075 18.3962 11.9775 18.7962 11.9775H24.5762C24.9762 11.9775 25.2962 12.2975 25.2962 12.6975C25.2962 13.0975 24.9762 13.4275 24.5762 13.4275Z" fill="#EACC2D"/>
</svg>
