<svg width="43" height="43" viewBox="0 0 43 43" fill="none" xmlns="http://www.w3.org/2000/svg">
<rect x="0.686188" y="0.977463" width="42" height="42" rx="21" fill="#0075FF" fill-opacity="0.09"/>
<path d="M28.7762 22.5675C28.6162 22.5675 28.4562 22.5175 28.3162 22.4075C24.2862 19.2975 19.0762 19.2975 15.0462 22.4075C14.7162 22.6575 14.2462 22.5975 13.9962 22.2775C13.7462 21.9475 13.8062 21.4775 14.1262 21.2275C18.7162 17.6775 24.6462 17.6775 29.2262 21.2275C29.5562 21.4775 29.6162 21.9475 29.3562 22.2775C29.2262 22.4675 29.0062 22.5675 28.7762 22.5675Z" fill="#2B59FF"/>
<path d="M31.6862 19.0875C31.5262 19.0875 31.3662 19.0375 31.2262 18.9275C25.4262 14.4475 17.9362 14.4475 12.1462 18.9275C11.8162 19.1775 11.3462 19.1175 11.0962 18.7975C10.8362 18.4775 10.8962 17.9975 11.2262 17.7475C17.5762 12.8375 25.7862 12.8375 32.1462 17.7475C32.4762 17.9975 32.5362 18.4675 32.2762 18.7975C32.1362 18.9875 31.9062 19.0875 31.6862 19.0875Z" fill="#2B59FF"/>
<path d="M26.8962 26.2175C26.7362 26.2175 26.5762 26.1675 26.4362 26.0575C23.5562 23.8275 19.8262 23.8275 16.9362 26.0575C16.6062 26.3075 16.1362 26.2475 15.8862 25.9275C15.6362 25.5975 15.6962 25.1275 16.0162 24.8775C19.4562 22.2175 23.9062 22.2175 27.3462 24.8775C27.6762 25.1275 27.7362 25.5975 27.4762 25.9275C27.3362 26.1175 27.1162 26.2175 26.8962 26.2175Z" fill="#2B59FF"/>
<path d="M24.2862 29.8775C24.1262 29.8775 23.9662 29.8275 23.8262 29.7175C22.5262 28.7075 20.8362 28.7075 19.5362 29.7175C19.2062 29.9675 18.7362 29.9075 18.4862 29.5875C18.2362 29.2575 18.2962 28.7875 18.6162 28.5375C20.4762 27.0975 22.8762 27.0975 24.7362 28.5375C25.0662 28.7875 25.1262 29.2575 24.8662 29.5875C24.7362 29.7675 24.5162 29.8775 24.2862 29.8775Z" fill="#2B59FF"/>
</svg>
